<?xml version="1.0" encoding="UTF-8"?>
<svg xmlns="http://www.w3.org/2000/svg" xmlns:xlink="http://www.w3.org/1999/xlink" width="120.54pt" height="120.56pt" viewBox="0 0 120.54 120.56" version="1.1">
<defs>
<clipPath id="clip1">
  <path d="M 0 0 L 120.539063 0 L 120.539063 120.558594 L 0 120.558594 Z M 0 0 "/>
</clipPath>
</defs>
<g id="surface1">
<g clip-path="url(#clip1)" clip-rule="nonzero">
<path style=" stroke:none;fill-rule:evenodd;fill:rgb(100%,100%,100%);fill-opacity:1;" d="M 0 0 L 120.539063 0 L 120.539063 120.558594 L 0 120.558594 L 0 0 "/>
</g>
<path style=" stroke:none;fill-rule:evenodd;fill:rgb(98.799133%,77.598572%,5.099487%);fill-opacity:1;" d="M 2.636719 2.582031 L 117.964844 2.582031 L 117.964844 117.902344 L 2.636719 117.902344 L 2.636719 2.582031 "/>
<path style=" stroke:none;fill-rule:nonzero;fill:rgb(4.299927%,39.199829%,55.699158%);fill-opacity:1;" d="M 4.390625 60.242188 C 4.390625 48.199219 29.421875 38.433594 60.300781 38.433594 C 91.179688 38.433594 116.210938 48.199219 116.210938 60.242188 C 116.210938 72.285156 91.179688 82.050781 60.300781 82.050781 C 29.421875 82.050781 4.390625 72.285156 4.390625 60.242188 "/>
<path style="fill:none;stroke-width:0.48568;stroke-linecap:butt;stroke-linejoin:miter;stroke:rgb(4.299927%,39.199829%,55.699158%);stroke-opacity:1;stroke-miterlimit:3.8636;" d="M 43.90625 603.178125 C 43.90625 723.607812 294.21875 821.264062 603.007813 821.264062 C 911.796875 821.264062 1162.109375 723.607812 1162.109375 603.178125 C 1162.109375 482.748437 911.796875 385.092187 603.007813 385.092187 C 294.21875 385.092187 43.90625 482.748437 43.90625 603.178125 Z M 43.90625 603.178125 " transform="matrix(0.1,0,0,-0.1,0,120.56)"/>
<path style=" stroke:none;fill-rule:evenodd;fill:rgb(100%,100%,100%);fill-opacity:1;" d="M 24.882813 70.84375 L 30.683594 49.183594 L 39.84375 49.183594 L 39.84375 61.921875 L 39.902344 61.921875 L 46.117188 49.183594 L 55.421875 49.183594 L 49.617188 70.84375 L 43.570313 70.84375 L 47.289063 56.949219 L 47.230469 56.949219 L 39.84375 70.84375 L 35 70.84375 L 35 56.949219 L 34.902344 56.949219 L 31.179688 70.84375 L 24.882813 70.84375 "/>
<path style=" stroke:none;fill-rule:evenodd;fill:rgb(89.7995%,20.399475%,16.099548%);fill-opacity:1;" d="M 57.058594 71.269531 L 57.882813 68.191406 L 64.554688 68.191406 L 63.730469 71.269531 L 57.058594 71.269531 "/>
<path style=" stroke:none;fill-rule:evenodd;fill:rgb(98.799133%,77.598572%,5.099487%);fill-opacity:1;" d="M 58.113281 67.328125 L 61.488281 54.734375 L 55.421875 54.734375 L 56.90625 49.183594 L 75.714844 49.183594 L 74.230469 54.734375 L 68.160156 54.734375 L 64.789063 67.324219 L 58.113281 67.328125 "/>
<path style=" stroke:none;fill-rule:evenodd;fill:rgb(100%,100%,100%);fill-opacity:1;" d="M 71.40625 70.84375 L 77.207031 49.183594 L 83.757813 49.183594 L 86.714844 60.773438 L 86.773438 60.773438 L 89.878906 49.183594 L 95.9375 49.183594 L 90.140625 70.84375 L 83.902344 70.84375 L 80.691406 59.011719 L 80.628906 59.011719 L 77.464844 70.84375 L 71.40625 70.84375 "/>
</g>
</svg>
