<svg width="1304" height="1308" viewBox="0 0 1304 1308" fill="none" xmlns="http://www.w3.org/2000/svg">
<path d="M650 1300C290.71 1300 0 1008.86 0 650C0 290.71 291.141 0 650 0C1009.29 0 1300 291.141 1300 650C1300.43 1009.29 1009.29 1300 650 1300Z" fill="#B5E2DC"/>
<mask id="mask0_32_1432" style="mask-type:alpha" maskUnits="userSpaceOnUse" x="0" y="0" width="1301" height="1300">
<g style="mix-blend-mode:overlay">
<path d="M650 1300C290.71 1300 0 1008.86 0 650C0 290.71 291.141 0 650 0C1009.29 0 1300 291.141 1300 650C1300.43 1009.29 1009.29 1300 650 1300Z" fill="#F4ECEC"/>
</g>
</mask>
<g mask="url(#mask0_32_1432)">
<path d="M1014 1197.33C1010.97 1199.5 1007.5 1201.66 1004.47 1203.83C1001 1206 997.967 1208.16 994.5 1209.9C991.467 1211.63 988.867 1213.36 985.833 1215.1C985.4 1215.53 984.967 1215.53 984.533 1215.96C974.567 1222.03 964.167 1227.66 953.767 1232.86C950.733 1234.6 947.267 1236.33 944.233 1237.63C944.233 1237.63 943.8 1238.06 943.367 1238.06C939.9 1239.8 936.433 1241.53 932.967 1243.26C926.033 1246.73 918.667 1249.76 911.733 1252.8C908.267 1254.53 904.367 1255.83 900.9 1257.13C897.433 1258.43 893.533 1260.16 890.067 1261.46C886.6 1262.76 882.7 1264.5 879.233 1265.8C879.233 1265.8 879.233 1265.8 878.8 1265.8C875.333 1267.1 871.433 1268.4 867.967 1269.7C860.167 1272.3 851.933 1274.9 844.133 1277.5C841.533 1278.36 838.5 1279.23 835.9 1280.1C827.667 1282.7 819.433 1284.86 811.2 1286.6C808.167 1287.46 805.133 1287.9 801.667 1288.76C793.867 1290.5 785.633 1292.23 777.833 1293.96C776.1 1294.4 774.8 1294.4 773.067 1294.83C770.467 1295.26 767.433 1295.7 764.833 1296.13C760.933 1296.56 757.467 1297.43 753.567 1297.86C751.833 1298.3 750.1 1298.3 748.367 1298.73C746.2 1299.16 743.6 1299.6 741 1299.6C734.067 1300.46 726.7 1301.33 719.767 1302.2C717.6 1302.63 715 1302.63 712.833 1303.06H712.4C709.367 1303.5 706.333 1303.5 703.3 1303.93C700.267 1304.36 697.233 1304.36 694.2 1304.36C692.467 1304.36 690.3 1304.8 688.567 1304.8C685.1 1304.8 682.067 1305.23 679.033 1305.23C674.7 1305.23 670.8 1305.66 666.467 1305.66C662.133 1305.66 658.233 1305.66 653.9 1305.66C650.867 1305.66 647.833 1305.66 644.8 1305.66C462.367 1303.06 297.7 1225.5 180.7 1102.43C180.7 1102.43 180.7 1102 180.267 1102C193.7 1075.56 243.534 1027.9 295.534 988.465C361.4 938.631 454.567 907.865 454.567 907.865C454.567 907.865 515.667 897.898 742.3 945.131C915.2 981.531 988.867 1129.3 1014 1197.33Z" fill="#F7D3B5"/>
<path d="M790.4 1065.16C781.3 1109.8 722.367 1136.23 623.134 1096.36C501.367 1046.96 454.567 907.865 454.567 907.865C448.067 808.198 432.9 722.832 432.9 722.832C573.734 710.698 740.134 875.365 740.134 875.365L759.2 956.831C760.934 963.765 764.4 969.831 769.6 974.165C778.7 989.765 796.467 1036.56 790.4 1065.16Z" fill="#F7D3B5"/>
<path d="M769.6 974.598C686.833 970.264 625.733 958.131 560.3 840.698C615.767 889.664 681.2 908.298 750.1 916.964L759.2 956.831C760.933 964.198 764.4 970.264 769.6 974.598Z" fill="#EFBDA5"/>
<path d="M940.767 452.431C948.567 488.831 952.467 518.298 931.233 615.365C910 712.431 950.733 809.498 848.467 898.331C779.567 958.131 659.1 969.398 562.9 903.965C530.4 881.865 500.5 851.098 476.234 810.798C457.167 779.165 435.067 749.265 410.367 721.965C376.134 684.698 334.967 609.731 355.334 477.131C388.267 261.332 601.9 236.632 728 260.465C854.1 284.298 919.533 356.231 940.767 452.431Z" fill="#F7D3B5"/>
<path d="M526.067 621.865C526.067 621.865 512.633 556.865 449.367 564.665C394.767 571.598 375.7 702.465 499.633 738.865" fill="#F7D3B5"/>
<path d="M495.734 679.498C495.734 679.498 480.134 669.531 481.867 652.198C484.467 631.831 481.867 619.265 472.334 615.365C448.5 605.398 443.734 633.131 444.6 636.598" stroke="#423232" stroke-width="13.4786" stroke-miterlimit="10" stroke-linecap="round" stroke-linejoin="round"/>
<path d="M826.367 721.531C826.367 721.531 842.833 722.398 858.433 703.765C867.1 693.365 874.467 680.365 869.7 676.465C864.933 672.131 786.5 684.265 781.3 694.665C776.1 705.065 806.433 721.531 826.367 721.531Z" fill="#EFBDA5"/>
<path d="M839.367 575.932C839.367 575.932 840.233 617.098 866.667 663.031C878.367 683.398 860.6 716.765 822.033 722.398" stroke="#423232" stroke-width="13.4786" stroke-miterlimit="10" stroke-linecap="round" stroke-linejoin="round"/>
<path opacity="0.42" d="M604.5 743.631C629.151 743.631 649.134 727.14 649.134 706.798C649.134 686.455 629.151 669.965 604.5 669.965C579.85 669.965 559.867 686.455 559.867 706.798C559.867 727.14 579.85 743.631 604.5 743.631Z" fill="#ED938A"/>
<path opacity="0.42" d="M924.3 670.831C923 695.098 923.433 718.931 921.7 742.765C902.633 738.431 888.767 724.131 888.767 707.231C888.767 689.031 903.933 674.298 924.3 670.831Z" fill="#ED938A"/>
<path d="M1057.78 1116.61C996.25 1037.31 900.917 1004.37 848.483 984.873C844.15 963.206 835.917 939.373 822.917 916.406C802.984 928.539 780.017 937.639 756.184 942.406L759.65 956.706C761.384 963.639 770.05 995.706 756.617 1036.87C745.35 1071.54 699.85 1087.14 622.717 1052.04C472.35 984.006 455.017 907.306 455.017 907.306C452.417 865.706 448.084 826.706 444.184 795.073C397.384 805.473 343.217 826.706 313.75 871.339C277.35 925.939 263.917 981.406 267.384 1025.61C204.117 1065.91 106.184 1127.01 74.1171 1236.21C32.5171 1378.34 39.4505 1465.44 39.4505 1465.44H1159.18C1157.88 1465.87 1141.42 1224.51 1057.78 1116.61Z" fill="#EE3C24"/>
<path d="M388.283 974.472C388.283 974.472 414.716 1077.17 530.416 1148.24" stroke="#423232" stroke-width="13.4786" stroke-miterlimit="10" stroke-linecap="round" stroke-linejoin="round"/>
<path d="M848.05 984.873C848.05 984.873 878.817 1117.91 811.65 1179.01" stroke="#423232" stroke-width="13.4786" stroke-miterlimit="10" stroke-linecap="round" stroke-linejoin="round"/>
<path d="M639.184 1158.64C639.184 1158.64 616.65 1224.51 622.717 1270.01" stroke="#423232" stroke-width="13.4786" stroke-miterlimit="10" stroke-linecap="round" stroke-linejoin="round"/>
<path d="M777.417 1154.74C777.417 1154.74 794.318 1191.57 806.451 1250.07" stroke="#423232" stroke-width="13.4786" stroke-miterlimit="10" stroke-linecap="round" stroke-linejoin="round"/>
<path d="M266.517 1026.04C266.517 1026.04 302.05 1170.77 513.517 1213.24" stroke="#423232" stroke-width="13.4786" stroke-miterlimit="10" stroke-linecap="round" stroke-linejoin="round"/>
<path d="M626.617 1279.97L607.55 1278.24C600.617 1277.37 595.417 1270.87 596.717 1263.94L603.217 1231.44C604.95 1222.34 613.617 1215.84 622.717 1217.14C631.817 1218.01 639.184 1225.81 639.184 1235.34L639.617 1268.71C639.617 1275.21 633.55 1280.84 626.617 1279.97Z" fill="white"/>
<path d="M825.517 1260.04L807.317 1266.54C800.384 1269.14 793.017 1264.81 791.717 1257.87L783.917 1225.81C781.751 1216.71 786.517 1207.61 795.617 1204.14C804.284 1201.11 814.251 1205.01 818.151 1213.24L832.451 1243.14C835.484 1249.64 832.451 1257.44 825.517 1260.04Z" fill="white"/>
<path d="M1016.62 1250.07C1016.62 1250.07 1040.88 1386.14 1031.35 1465.87" stroke="#544D4D" stroke-width="13.4786" stroke-miterlimit="10" stroke-linecap="round" stroke-linejoin="round"/>
<path d="M743.042 526.549C752.575 527.849 759.942 517.882 756.475 508.349C754.742 503.149 751.708 498.382 746.942 495.349C732.208 486.249 677.175 485.382 648.142 506.182C622.575 525.249 699.708 520.482 743.042 526.549Z" fill="#423232"/>
<path d="M863.074 531.315C855.274 531.315 850.507 521.349 854.407 513.115C856.574 508.782 859.607 504.882 863.941 502.715C877.374 496.215 913.341 500.115 929.374 522.215C943.674 541.715 899.041 530.882 863.074 531.315Z" fill="#423232"/>
<path d="M727.875 581.149C694.075 595.449 656.375 577.682 656.375 577.682" stroke="#423232" stroke-width="13.4786" stroke-miterlimit="10" stroke-linecap="round" stroke-linejoin="round"/>
<path d="M899.042 589.816C899.042 589.816 875.642 604.116 846.175 587.216" stroke="#423232" stroke-width="13.4786" stroke-miterlimit="10" stroke-linecap="round" stroke-linejoin="round"/>
<path d="M804.157 772.845C804.606 780.033 799.215 792.613 789.331 801.599C738.561 770.598 715.648 786.772 715.648 786.772C697.676 759.366 701.72 722.075 745.301 750.38C775.852 769.7 794.273 772.845 804.157 772.845Z" fill="#423232"/>
<path d="M789.331 801.599C778.548 811.034 762.374 816.875 740.359 807.889C730.025 803.846 721.938 795.758 715.648 786.773C715.648 786.773 738.562 770.598 789.331 801.599Z" fill="#FE9DAB"/>
<path d="M812.694 771.048C812.694 771.048 793.824 781.381 745.301 750.381C687.343 713.09 699.025 791.266 739.91 807.889C782.592 825.411 804.607 787.222 804.158 772.845" stroke="#423232" stroke-width="13.4786" stroke-miterlimit="10" stroke-linecap="round" stroke-linejoin="round"/>
<path d="M715.648 786.773C715.648 786.773 738.562 770.598 789.331 801.599" stroke="#423232" stroke-width="13.4786" stroke-miterlimit="10" stroke-linecap="round" stroke-linejoin="round"/>
<path d="M974.205 347.827C943.439 459.193 854.172 440.56 770.539 410.227C659.172 369.493 561.239 402.427 560.806 502.96C559.939 650.293 523.106 605.66 519.206 600.026C509.672 581.826 489.306 559.293 450.739 564.06C400.039 570.56 380.106 682.36 474.572 728.293C491.039 811.926 445.972 804.126 445.972 804.126C430.806 742.593 303.406 611.726 302.972 525.493C302.972 409.36 361.472 376.427 361.472 376.427C363.206 295.393 447.706 206.127 589.839 209.16C731.972 211.76 819.072 207.86 846.805 174.493C874.539 140.26 1004.97 236.46 974.205 347.827Z" fill="#423232"/>
<path d="M977.672 481.727C973.339 509.893 961.206 531.56 944.306 547.593C950.806 500.36 947.339 477.827 941.706 451.393C929.572 397.227 903.572 350.427 860.239 315.76C881.906 314.027 904.006 318.793 923.939 331.36C923.939 330.927 995.439 359.96 977.672 481.727Z" fill="#423232"/>
<path opacity="0.6" d="M865.083 677.253C865.083 677.253 870.283 706.719 904.516 721.453C913.183 724.919 922.283 719.286 922.283 709.753C921.849 709.753 867.249 680.719 865.083 677.253Z" fill="#B7AEA9"/>
<path opacity="0.6" d="M782.749 606.186C782.749 606.186 810.483 578.453 824.349 575.42L787.516 584.086L782.749 606.186Z" fill="#B7AEA9"/>
<path opacity="0.6" d="M597.716 677.253C597.716 677.253 613.75 713.653 661.85 722.32C709.95 731.42 753.716 696.753 774.083 638.687C774.083 638.687 757.616 692.42 691.75 702.386C626.316 713.22 597.716 677.253 597.716 677.253Z" fill="#B7AEA9"/>
<path opacity="0.29" d="M675.283 482.687C614.183 482.687 564.349 533.82 563.916 596.22C563.916 625.687 574.749 652.553 592.516 672.053L749.816 513.02C730.316 493.953 704.316 482.687 675.283 482.687Z" fill="#DBC3ED"/>
<path opacity="0.23" d="M749.816 513.02L592.517 672.053C612.45 694.153 640.617 707.587 671.817 707.587C732.05 707.587 781.45 657.753 783.183 595.787C784.05 563.287 771.05 533.82 749.816 513.02Z" fill="#C4ADD8"/>
<path opacity="0.29" d="M928.783 482.687C882.416 482.687 843.416 533.82 841.683 596.22C840.816 621.353 846.449 644.32 855.983 662.953L993.349 526.887C979.049 500.02 955.649 482.687 928.783 482.687Z" fill="#DBC3ED"/>
<path opacity="0.23" d="M993.349 526.453L855.982 662.519C870.282 689.819 893.682 707.586 920.982 707.586C966.482 707.586 1005.48 657.753 1008.08 595.786C1008.95 570.219 1003.32 545.953 993.349 526.453Z" fill="#C4ADD8"/>
<path d="M783.182 596.22C781.882 658.187 732.049 708.02 671.816 708.02C611.582 708.02 563.482 658.187 563.482 596.22C563.916 533.82 613.749 482.687 674.849 482.687C735.949 482.687 784.916 533.82 783.182 596.22Z" stroke="#4EC2DD" stroke-width="13.4786" stroke-miterlimit="10" stroke-linecap="round" stroke-linejoin="round"/>
<path d="M1008.08 596.22C1005.48 658.187 966.482 708.02 920.982 708.02C875.482 708.02 839.949 658.187 841.683 596.22C843.416 533.82 882.416 482.687 928.782 482.687C975.149 482.687 1010.68 533.82 1008.08 596.22Z" stroke="#4EC2DD" stroke-width="13.4786" stroke-miterlimit="10" stroke-linecap="round" stroke-linejoin="round"/>
<path d="M564.783 584.086H503.25" stroke="#4EC2DD" stroke-width="13.4786" stroke-miterlimit="10" stroke-linecap="round" stroke-linejoin="round"/>
<path d="M783.616 584.086C783.616 584.086 835.182 564.153 841.682 584.086" stroke="#4EC2DD" stroke-width="13.4786" stroke-miterlimit="10" stroke-linecap="round" stroke-linejoin="round"/>
</g>
</svg>
