<svg width="248" height="778" viewBox="0 0 248 778" fill="none" xmlns="http://www.w3.org/2000/svg">
<g style="mix-blend-mode:hard-light">
<path d="M122.351 265.056L122.825 264.895L122.351 265.056ZM13.4148 480.611L13.8527 480.852L13.4148 480.611ZM146.998 776.281L147.448 776.064L147.012 775.163L146.562 775.381L146.998 776.281ZM151.287 773.067L150.839 773.289L151.284 774.185L151.732 773.963L151.287 773.067ZM156.289 771.673L156.735 771.447L156.281 770.555L155.835 770.782L156.289 771.673ZM160.208 768.526L159.765 768.758L160.228 769.644L160.671 769.412L160.208 768.526ZM164.881 767.177L165.321 766.94L164.847 766.06L164.407 766.297L164.881 767.177ZM168.878 763.849L168.442 764.093L168.928 764.966L169.365 764.723L168.878 763.849ZM173.923 762.138L174.356 761.888L173.855 761.022L173.422 761.272L173.923 762.138ZM177.731 758.733L177.303 758.991L177.818 759.848L178.247 759.59L177.731 758.733ZM182.34 757.077L182.764 756.812L182.232 755.964L181.809 756.23L182.34 757.077ZM186.023 753.523L185.606 753.798L186.156 754.633L186.573 754.358L186.023 753.523ZM190.917 751.416L191.327 751.13L190.755 750.31L190.344 750.596L190.917 751.416ZM194.344 747.719L193.943 748.017L194.539 748.82L194.94 748.522L194.344 747.719ZM198.696 745.638L199.088 745.327L198.465 744.544L198.074 744.855L198.696 745.638ZM202.164 741.455L201.787 741.784L202.444 742.538L202.821 742.209L202.164 741.455ZM206.495 738.845L206.855 738.498L206.16 737.778L205.8 738.125L206.495 738.845ZM209.183 734.659L208.845 735.027L209.583 735.702L209.921 735.333L209.183 734.659ZM213.293 731.336L213.599 730.94L212.807 730.329L212.502 730.725L213.293 731.336ZM215.192 726.878L214.927 727.302L215.775 727.832L216.04 727.408L215.192 726.878ZM218.545 722.744L218.748 722.287L217.835 721.879L217.632 722.336L218.545 722.744ZM219.231 717.824L219.105 718.308L220.072 718.56L220.199 718.076L219.231 717.824ZM221 712.977L221.026 712.478L220.027 712.426L220.001 712.925L221 712.977ZM219.742 708.087L219.821 708.581L220.808 708.423L220.729 707.929L219.742 708.087ZM219.404 702.953L219.229 702.484L218.292 702.834L218.467 703.302L219.404 702.953ZM216.403 698.918L216.65 699.353L217.519 698.859L217.272 698.424L216.403 698.918ZM214.449 694.151L214.149 693.751L213.35 694.352L213.65 694.752L214.449 694.151ZM210.494 690.97L210.832 691.338L211.57 690.663L211.232 690.294L210.494 690.97ZM207.648 686.677L207.283 686.335L206.599 687.064L206.963 687.406L207.648 686.677ZM203.254 684.129L203.638 684.45L204.279 683.682L203.895 683.362L203.254 684.129ZM199.881 680.174L199.483 679.872L198.879 680.669L199.277 680.971L199.881 680.174ZM195.305 678.078L195.715 678.365L196.289 677.546L195.88 677.259L195.305 678.078ZM191.607 674.363L191.189 674.089L190.641 674.925L191.059 675.199L191.607 674.363ZM186.919 672.557L187.343 672.821L187.871 671.972L187.447 671.708L186.919 672.557ZM183.133 669.089L182.703 668.834L182.193 669.694L182.623 669.949L183.133 669.089ZM178.231 667.397L178.665 667.645L179.161 666.776L178.726 666.528L178.231 667.397ZM174.406 664.108L173.968 663.866L173.485 664.742L173.923 664.983L174.406 664.108ZM169.477 662.568L169.918 662.804L170.39 661.923L169.95 661.686L169.477 662.568ZM165.488 659.325L165.045 659.093L164.582 659.98L165.025 660.211L165.488 659.325ZM160.611 657.926L161.056 658.154L161.512 657.264L161.067 657.036L160.611 657.926ZM156.553 654.74L156.106 654.515L155.656 655.407L156.102 655.633L156.553 654.74ZM151.6 653.376L152.048 653.599L152.494 652.704L152.046 652.481L151.6 653.376ZM147.578 650.267L147.129 650.046L146.687 650.942L147.135 651.164L147.578 650.267ZM142.608 648.939L143.057 649.159L143.497 648.261L143.048 648.041L142.608 648.939ZM138.51 645.824L138.061 645.605L137.623 646.504L138.072 646.723L138.51 645.824ZM133.585 644.538L134.034 644.757L134.472 643.858L134.022 643.639L133.585 644.538ZM129.499 641.438L129.049 641.22L128.611 642.119L129.061 642.337L129.499 641.438ZM124.516 640.123L124.966 640.343L125.404 639.444L124.955 639.225L124.516 640.123ZM120.464 637.028L120.015 636.808L119.574 637.706L120.023 637.926L120.464 637.028ZM115.516 635.709L115.964 635.931L116.407 635.034L115.958 634.813L115.516 635.709ZM111.446 632.576L110.998 632.353L110.553 633.248L111 633.471L111.446 632.576ZM106.507 631.222L106.954 631.447L107.404 630.553L106.957 630.329L106.507 631.222ZM102.48 628.06L102.034 627.833L101.58 628.724L102.025 628.951L102.48 628.06ZM97.5553 626.655L97.9994 626.884L98.4591 625.996L98.0151 625.767L97.5553 626.655ZM93.5594 623.441L93.117 623.208L92.6511 624.093L93.0935 624.325L93.5594 623.441ZM88.6472 621.962L89.0877 622.199L89.5606 621.318L89.12 621.081L88.6472 621.962ZM84.7141 618.692L84.2756 618.452L83.795 619.328L84.2334 619.569L84.7141 618.692ZM79.8439 617.135L80.28 617.38L80.7693 616.508L80.3332 616.263L79.8439 617.135ZM75.9479 613.771L75.5146 613.522L75.0157 614.389L75.4491 614.638L75.9479 613.771ZM71.1089 612.105L71.5391 612.36L72.0485 611.499L71.6182 611.245L71.1089 612.105ZM67.3511 608.681L66.9242 608.421L66.4035 609.274L66.8303 609.535L67.3511 608.681ZM62.5148 606.859L62.9377 607.125L63.4711 606.28L63.0482 606.013L62.5148 606.859ZM58.8247 603.302L58.4062 603.028L57.859 603.865L58.2775 604.139L58.8247 603.302ZM54.1279 601.374L54.5415 601.655L55.1034 600.828L54.6898 600.547L54.1279 601.374ZM50.5354 597.665L50.1275 597.376L49.5493 598.192L49.9572 598.481L50.5354 597.665ZM45.8719 595.519L46.2735 595.817L46.8693 595.014L46.4678 594.716L45.8719 595.519ZM42.5202 591.715L42.1258 591.408L41.5111 592.197L41.9055 592.504L42.5202 591.715ZM37.9412 589.331L38.3273 589.648L38.9627 588.876L38.5766 588.558L37.9412 589.331ZM34.7449 585.312L34.3683 584.983L33.7106 585.736L34.0872 586.065L34.7449 585.312ZM30.3909 582.735L30.757 583.076L31.4382 582.344L31.0722 582.003L30.3909 582.735ZM27.4303 578.493L27.0768 578.139L26.3697 578.846L26.7233 579.2L27.4303 578.493ZM23.2245 575.564L23.5639 575.931L24.2981 575.252L23.9587 574.885L23.2245 575.564ZM20.6856 571.193L20.3621 570.812L19.5996 571.459L19.9231 571.84L20.6856 571.193ZM16.7103 567.866L17.015 568.263L17.8078 567.653L17.5031 567.257L16.7103 567.866ZM14.5715 563.234L14.2878 562.822L13.4643 563.389L13.7479 563.801L14.5715 563.234ZM11.013 559.581L11.2727 560.008L12.1272 559.489L11.8675 559.062L11.013 559.581ZM9.39733 554.7L9.16483 554.257L8.27952 554.722L8.51202 555.165L9.39733 554.7ZM6.3226 550.641L6.52514 551.098L7.43942 550.693L7.23689 550.236L6.3226 550.641ZM5.38054 545.613L5.21101 545.142L4.27024 545.481L4.43978 545.952L5.38054 545.613ZM2.90217 541.133L3.03619 541.615L3.9996 541.347L3.86558 540.865L2.90217 541.133ZM2.71665 536.027L2.61992 535.536L1.63881 535.73L1.73555 536.22L2.71665 536.027ZM0.954219 531.258L1.01289 531.754L2.00598 531.637L1.94731 531.14L0.954219 531.258ZM1.55261 526.135L1.53261 525.636L0.533412 525.676L0.553411 526.175L1.55261 526.135ZM0.539702 521.176L0.522659 521.676L1.52208 521.71L1.53912 521.21L0.539702 521.176ZM1.88633 516.266L1.93899 515.769L0.944549 515.663L0.891895 516.16L1.88633 516.266ZM1.61771 511.032L1.5307 511.524L2.51544 511.698L2.60245 511.206L1.61771 511.032ZM3.59056 506.474L3.70752 505.988L2.73526 505.754L2.6183 506.24L3.59056 506.474ZM3.93996 501.382L3.79489 501.861L4.75187 502.151L4.89694 501.673L3.93996 501.382ZM6.53588 496.769L6.70728 496.299L5.76787 495.957L5.59647 496.426L6.53588 496.769ZM7.37063 491.904L7.17724 492.365L8.09942 492.752L8.2928 492.291L7.37063 491.904ZM10.3059 487.778L10.5195 487.326L9.6154 486.899L9.40176 487.351L10.3059 487.778ZM11.7139 482.717L11.4814 483.16L12.3668 483.625L12.5992 483.182L11.7139 482.717ZM15.0966 478.6L15.3387 478.163L14.4637 477.678L14.2216 478.116L15.0966 478.6ZM16.6909 473.674L16.4471 474.111L17.3202 474.598L17.564 474.162L16.6909 473.674ZM20.0045 469.811L20.25 469.375L19.3788 468.884L19.1333 469.32L20.0045 469.811ZM21.5488 465.052L21.3017 465.487L22.171 465.981L22.4181 465.547L21.5488 465.052ZM24.9546 461.107L25.2035 460.673L24.3362 460.175L24.0873 460.609L24.9546 461.107ZM26.6019 456.249L26.3511 456.682L27.2163 457.184L27.4671 456.751L26.6019 456.249ZM29.9489 452.489L30.2014 452.058L29.3384 451.553L29.0858 451.984L29.9489 452.489ZM31.6435 447.635L31.389 448.066L32.2499 448.575L32.5043 448.144L31.6435 447.635ZM35.0854 443.8L35.3418 443.371L34.4832 442.858L34.2269 443.287L35.0854 443.8ZM36.7754 439.041L36.5171 439.469L37.3734 439.986L37.6317 439.558L36.7754 439.041ZM40.2325 435.27L40.4928 434.843L39.639 434.322L39.3787 434.749L40.2325 435.27ZM42.0254 430.432L41.763 430.858L42.6143 431.383L42.8767 430.957L42.0254 430.432ZM45.4809 426.756L45.7454 426.331L44.8967 425.802L44.6322 426.227L45.4809 426.756ZM47.3082 421.957L47.0416 422.38L47.8876 422.913L48.1542 422.49L47.3082 421.957ZM50.8527 418.234L51.1215 417.812L50.2783 417.274L50.0095 417.696L50.8527 418.234ZM52.6652 413.555L52.3942 413.975L53.2345 414.517L53.5055 414.097L52.6652 413.555ZM56.2771 409.826L56.5504 409.407L55.7131 408.86L55.4397 409.279L56.2771 409.826ZM58.1831 405.102L57.9074 405.519L58.7417 406.071L59.0174 405.653L58.1831 405.102ZM61.7729 401.508L62.0509 401.093L61.2197 400.537L60.9418 400.952L61.7729 401.508ZM63.7697 396.751L63.4893 397.165L64.3172 397.726L64.5977 397.312L63.7697 396.751ZM67.3618 393.256L67.6446 392.844L66.8199 392.278L66.5371 392.691L67.3618 393.256ZM69.4402 388.485L69.1549 388.896L69.9761 389.466L70.2614 389.055L69.4402 388.485ZM73.0948 385.003L73.3825 384.594L72.5647 384.018L72.277 384.427L73.0948 385.003ZM75.2059 380.291L74.9157 380.698L75.7301 381.279L76.0203 380.871L75.2059 380.291ZM78.9117 376.84L79.2043 376.434L78.3934 375.849L78.1008 376.255L78.9117 376.84ZM81.0723 372.163L80.7773 372.567L81.5847 373.157L81.8797 372.753L81.0723 372.163ZM84.8126 368.764L85.1099 368.362L84.3059 367.767L84.0086 368.169L84.8126 368.764ZM87.0347 364.101L86.7352 364.501L87.5359 365.1L87.8354 364.7L87.0347 364.101ZM90.8039 360.753L91.1054 360.354L90.3077 359.751L90.0061 360.15L90.8039 360.753ZM93.0729 356.112L92.7696 356.51L93.5646 357.116L93.8679 356.719L93.0729 356.112ZM96.9087 352.748L97.2134 352.352L96.4205 351.743L96.1158 352.139L96.9087 352.748ZM99.1438 348.209L98.8382 348.605L99.6298 349.216L99.9353 348.82L99.1438 348.209ZM103.029 344.816L103.335 344.42L102.544 343.809L102.238 344.204L103.029 344.816ZM105.3 340.235L104.995 340.632L105.788 341.241L106.093 340.845L105.3 340.235ZM109.127 336.881L109.43 336.483L108.634 335.877L108.331 336.275L109.127 336.881ZM111.326 332.297L111.027 332.699L111.83 333.295L112.128 332.894L111.326 332.297ZM115.084 328.85L115.375 328.444L114.562 327.861L114.271 328.268L115.084 328.85ZM117.129 324.166L116.849 324.58L117.678 325.14L117.958 324.725L117.129 324.166ZM120.69 320.5L120.952 320.074L120.1 319.55L119.838 319.976L120.69 320.5ZM122.332 315.65L122.097 316.091L122.979 316.562L123.214 316.121L122.332 315.65ZM125.418 311.572L125.616 311.112L124.697 310.716L124.499 311.176L125.418 311.572ZM126.222 306.539L126.074 307.017L127.029 307.313L127.177 306.835L126.222 306.539ZM128.382 301.92L128.471 301.428L127.487 301.25L127.398 301.742L128.382 301.92ZM127.975 296.843L127.946 297.342L128.945 297.399L128.973 296.9L127.975 296.843ZM128.981 291.847L128.955 291.348L127.957 291.398L127.982 291.898L128.981 291.847ZM127.506 286.952L127.575 287.448L128.565 287.311L128.497 286.815L127.506 286.952ZM127.632 281.842L127.531 281.353L126.551 281.555L126.652 282.045L127.632 281.842ZM125.519 277.194L125.644 277.678L126.612 277.428L126.487 276.944L125.519 277.194ZM125.139 272.116L124.996 271.637L124.038 271.922L124.181 272.402L125.139 272.116ZM122.692 267.652L122.847 268.127L123.798 267.816L123.642 267.34L122.692 267.652ZM122.023 262.556L121.86 262.083L120.914 262.41L121.078 262.882L122.023 262.556ZM119.469 258.293L119.636 258.764L120.579 258.429L120.411 257.958L119.469 258.293ZM118.762 253.375L118.59 252.905L117.651 253.248L117.822 253.718L118.762 253.375ZM116.132 249.128L116.306 249.596L117.243 249.248L117.069 248.779L116.132 249.128ZM115.352 244.201L115.176 243.734L114.24 244.087L114.417 244.555L115.352 244.201ZM112.684 239.993L112.862 240.46L113.797 240.103L113.618 239.636L112.684 239.993ZM111.877 235.078L111.698 234.611L110.764 234.968L110.942 235.435L111.877 235.078ZM109.203 230.876L109.381 231.343L110.316 230.988L110.138 230.521L109.203 230.876ZM108.417 225.958L108.242 225.49L107.306 225.84L107.481 226.308L108.417 225.958ZM105.791 221.727L105.962 222.197L106.902 221.855L106.731 221.385L105.791 221.727ZM105.098 216.795L104.934 216.323L103.989 216.651L104.153 217.123L105.098 216.795ZM102.59 212.492L102.745 212.967L103.696 212.657L103.54 212.181L102.59 212.492ZM102.082 207.538L101.938 207.06L100.981 207.347L101.125 207.826L102.082 207.538ZM99.7831 203.121L99.9129 203.604L100.879 203.344L100.749 202.862L99.7831 203.121ZM99.5655 198.147L99.4523 197.66L98.4783 197.886L98.5914 198.373L99.5655 198.147ZM97.5743 193.582L97.6684 194.073L98.6505 193.885L98.5564 193.394L97.5743 193.582ZM97.7427 188.604L97.6696 188.109L96.6803 188.256L96.7534 188.75L97.7427 188.604ZM96.146 183.885L96.1967 184.383L97.1915 184.281L97.1409 183.784L96.146 183.885ZM96.7614 178.945L96.7339 178.446L95.7354 178.501L95.7629 179L96.7614 178.945ZM95.6071 174.103L95.6114 174.603L96.6114 174.594L96.607 174.094L95.6071 174.103ZM96.6747 169.24L96.6928 168.74L95.6935 168.704L95.6753 169.203L96.6747 169.24ZM95.959 164.311L95.9194 164.81L96.9163 164.889L96.9558 164.39L95.959 164.311ZM97.4384 159.553L97.4979 159.057L96.505 158.938L96.4455 159.434L97.4384 159.553ZM97.1203 154.576L97.0424 155.07L98.0303 155.226L98.1081 154.732L97.1203 154.576ZM98.9484 149.935L99.0429 149.444L98.0609 149.255L97.9665 149.746L98.9484 149.935ZM98.9626 144.97L98.8531 145.458L99.8289 145.677L99.9383 145.189L98.9626 144.97ZM101.067 140.47L101.189 139.986L100.22 139.74L100.097 140.225L101.067 140.47ZM101.358 135.502L101.224 135.983L102.186 136.253L102.321 135.772L101.358 135.502ZM103.693 131.083L103.839 130.605L102.882 130.314L102.737 130.792L103.693 131.083ZM104.213 126.12L104.058 126.595L105.008 126.906L105.164 126.43L104.213 126.12ZM106.711 121.843L106.875 121.371L105.93 121.043L105.766 121.515L106.711 121.843ZM107.411 116.903L107.239 117.373L108.178 117.716L108.35 117.247L107.411 116.903ZM110.067 112.661L110.245 112.194L109.311 111.837L109.133 112.304L110.067 112.661ZM110.897 107.787L110.712 108.251L111.641 108.621L111.826 108.157L110.897 107.787ZM113.669 103.612L113.86 103.15L112.935 102.769L112.745 103.231L113.669 103.612ZM114.625 98.7451L114.429 99.2051L115.35 99.5968L115.545 99.1367L114.625 98.7451ZM117.538 94.5579L117.744 94.1022L116.832 93.6908L116.627 94.1466L117.538 94.5579ZM118.749 89.6403L118.528 90.0891L119.426 90.5298L119.646 90.0809L118.749 89.6403ZM121.912 85.6511L122.147 85.2098L121.264 84.7398L121.029 85.1812L121.912 85.6511ZM123.438 80.8314L123.189 81.2647L124.055 81.7636L124.305 81.3303L123.438 80.8314ZM126.859 77.0603L127.122 76.6356L126.273 76.108L126.009 76.5327L126.859 77.0603ZM128.714 72.3368L128.436 72.7525L129.268 73.3084L129.545 72.8927L128.714 72.3368ZM132.363 68.8289L132.655 68.4229L131.843 67.8394L131.551 68.2454L132.363 68.8289ZM134.542 64.2266L134.237 64.6226L135.029 65.2331L135.334 64.8372L134.542 64.2266ZM138.424 60.9649L138.743 60.5793L137.972 59.9426L137.653 60.3281L138.424 60.9649ZM140.892 56.5369L140.561 56.9116L141.31 57.5737L141.641 57.199L140.892 56.5369ZM144.994 53.5277L145.338 53.1642L144.611 52.4776L144.267 52.8412L144.994 53.5277ZM147.751 49.2705L147.396 49.6226L148.1 50.3325L148.455 49.9804L147.751 49.2705ZM152.026 46.5507L152.392 46.2101L151.711 45.4779L151.345 45.8184L152.026 46.5507ZM155.064 42.4683L154.687 42.797L155.344 43.5505L155.721 43.2219L155.064 42.4683ZM159.511 40.0195L159.897 39.7027L159.264 38.929L158.877 39.2457L159.511 40.0195ZM162.779 36.1502L162.383 36.455L162.992 37.2478L163.388 36.9431L162.779 36.1502ZM167.373 33.9751L167.778 33.6825L167.193 32.8716L166.788 33.1642L167.373 33.9751ZM170.884 30.299L170.47 30.5795L171.031 31.4073L171.445 31.1268L170.884 30.299ZM175.592 28.4038L176.014 28.1354L175.477 27.2917L175.055 27.5601L175.592 28.4038ZM179.294 24.9465L178.865 25.2029L179.378 26.0614L179.807 25.8051L179.294 24.9465ZM184.105 23.3185L184.542 23.0741L184.053 22.2017L183.617 22.446L184.105 23.3185ZM188.013 20.0619L187.57 20.2943L188.035 21.1798L188.477 20.9474L188.013 20.0619ZM192.907 18.6975L193.356 18.477L192.915 17.5795L192.466 17.8L192.907 18.6975ZM196.973 15.6586L196.518 15.8673L196.936 16.776L197.39 16.5674L196.973 15.6586ZM201.924 14.5556L202.384 14.3587L201.99 13.4395L201.53 13.6364L201.924 14.5556ZM206.136 11.7318L205.672 11.917L206.042 12.8459L206.506 12.6607L206.136 11.7318ZM211.137 10.8814L211.605 10.708L211.258 9.77008L210.79 9.94357L211.137 10.8814ZM215.49 8.27095L215.017 8.43267L215.341 9.37892L215.814 9.2172L215.49 8.27095ZM220.538 7.66826L221.015 7.51844L220.715 6.56439L220.238 6.7142L220.538 7.66826ZM225.03 5.27558L224.55 5.41324L224.825 6.37459L225.306 6.23693L225.03 5.27558ZM230.105 4.92939L230.589 4.80429L230.339 3.8361L229.855 3.9612L230.105 4.92939ZM234.675 2.78447L234.187 2.89637L234.411 3.87101L234.898 3.75911L234.675 2.78447ZM239.785 2.71324L240.275 2.61621L240.081 1.63523L239.591 1.73226L239.785 2.71324ZM244.471 0.856747L243.977 0.935084L244.134 1.92273L244.628 1.8444L244.471 0.856747ZM144.564 777.451C145.383 777.06 146.194 776.67 146.998 776.281L146.562 775.381C145.76 775.769 144.95 776.158 144.133 776.549L144.564 777.451ZM151.732 773.963C153.28 773.195 154.799 772.432 156.289 771.673L155.835 770.782C154.349 771.539 152.833 772.301 151.287 773.067L151.732 773.963ZM160.671 769.412C162.103 768.662 163.507 767.918 164.881 767.177L164.407 766.297C163.036 767.035 161.636 767.778 160.208 768.526L160.671 769.412ZM169.365 764.723C170.924 763.855 172.443 762.994 173.923 762.138L173.422 761.272C171.947 762.125 170.433 762.984 168.878 763.849L169.365 764.723ZM178.247 759.59C179.649 758.746 181.014 757.909 182.34 757.077L181.809 756.23C180.488 757.058 179.129 757.893 177.731 758.733L178.247 759.59ZM186.573 754.358C188.075 753.369 189.522 752.389 190.917 751.416L190.344 750.596C188.958 751.563 187.518 752.539 186.023 753.523L186.573 754.358ZM194.94 748.522C196.246 747.553 197.497 746.592 198.696 745.638L198.074 744.855C196.884 745.802 195.641 746.756 194.344 747.719L194.94 748.522ZM202.821 742.209C204.12 741.077 205.344 739.956 206.495 738.845L205.8 738.125C204.663 739.224 203.451 740.334 202.164 741.455L202.821 742.209ZM209.921 735.333C211.153 733.987 212.276 732.654 213.293 731.336L212.502 730.725C211.503 732.02 210.398 733.331 209.183 734.659L209.921 735.333ZM216.04 727.408C217.025 725.835 217.858 724.281 218.545 722.744L217.632 722.336C216.965 723.827 216.155 725.341 215.192 726.878L216.04 727.408ZM220.199 718.076C220.648 716.355 220.912 714.656 221 712.977L220.001 712.925C219.917 714.534 219.664 716.166 219.231 717.824L220.199 718.076ZM220.729 707.929C220.46 706.247 220.014 704.589 219.404 702.953L218.467 703.302C219.056 704.88 219.484 706.474 219.742 708.087L220.729 707.929ZM217.272 698.424C216.453 696.984 215.509 695.56 214.449 694.151L213.65 694.752C214.687 696.131 215.607 697.519 216.403 698.918L217.272 698.424ZM211.232 690.294C210.12 689.08 208.923 687.874 207.648 686.677L206.963 687.406C208.222 688.588 209.401 689.775 210.494 690.97L211.232 690.294ZM203.895 683.362C202.616 682.294 201.277 681.232 199.881 680.174L199.277 680.971C200.662 682.02 201.988 683.073 203.254 684.129L203.895 683.362ZM195.88 677.259C194.5 676.291 193.075 675.326 191.607 674.363L191.059 675.199C192.518 676.157 193.935 677.116 195.305 678.078L195.88 677.259ZM187.447 671.708C186.041 670.834 184.602 669.961 183.133 669.089L182.623 669.949C184.087 670.818 185.519 671.687 186.919 672.557L187.447 671.708ZM178.726 666.528C177.31 665.721 175.869 664.914 174.406 664.108L173.923 664.983C175.383 665.788 176.819 666.592 178.231 667.397L178.726 666.528ZM169.95 661.686C168.482 660.9 166.994 660.113 165.488 659.325L165.025 660.211C166.528 660.998 168.013 661.783 169.477 662.568L169.95 661.686ZM161.067 657.036C159.577 656.272 158.072 655.507 156.553 654.74L156.102 655.633C157.62 656.398 159.123 657.163 160.611 657.926L161.067 657.036ZM152.046 652.481C150.568 651.745 149.078 651.007 147.578 650.267L147.135 651.164C148.634 651.903 150.123 652.641 151.6 653.376L152.046 652.481ZM143.048 648.041C141.544 647.304 140.031 646.566 138.51 645.824L138.072 646.723C139.592 647.464 141.104 648.203 142.608 648.939L143.048 648.041ZM134.022 643.639C132.52 642.908 131.012 642.175 129.499 641.438L129.061 642.337C130.574 643.074 132.083 643.808 133.585 644.538L134.022 643.639ZM124.955 639.225C123.461 638.496 121.963 637.764 120.464 637.028L120.023 637.926C121.524 638.662 123.022 639.394 124.516 640.123L124.955 639.225ZM115.958 634.813C114.455 634.071 112.951 633.325 111.446 632.576L111 633.471C112.506 634.221 114.012 634.967 115.516 635.709L115.958 634.813ZM106.957 630.329C105.463 629.576 103.97 628.82 102.48 628.06L102.025 628.951C103.518 629.712 105.012 630.469 106.507 631.222L106.957 630.329ZM98.0151 625.767C96.5262 624.996 95.0406 624.221 93.5594 623.441L93.0935 624.325C94.5768 625.107 96.0645 625.883 97.5553 626.655L98.0151 625.767ZM89.12 621.081C87.6454 620.29 86.1764 619.493 84.7141 618.692L84.2334 619.569C85.6985 620.372 87.1701 621.17 88.6472 621.962L89.12 621.081ZM80.3332 616.263C78.863 615.438 77.4008 614.608 75.9479 613.771L75.4491 614.638C76.9053 615.476 78.3706 616.309 79.8439 617.135L80.3332 616.263ZM71.6182 611.245C70.185 610.396 68.7622 609.542 67.3511 608.681L66.8303 609.535C68.2454 610.398 69.672 611.255 71.1089 612.105L71.6182 611.245ZM63.0482 606.013C61.6264 605.116 60.2182 604.213 58.8247 603.302L58.2775 604.139C59.6758 605.053 61.0886 605.959 62.5148 606.859L63.0482 606.013ZM54.6898 600.547C53.2875 599.594 51.9023 598.634 50.5354 597.665L49.9572 598.481C51.3297 599.454 52.7204 600.418 54.1279 601.374L54.6898 600.547ZM46.4678 594.716C45.1314 593.725 43.8151 592.725 42.5202 591.715L41.9055 592.504C43.2069 593.518 44.5295 594.523 45.8719 595.519L46.4678 594.716ZM38.5766 588.558C37.2739 587.486 35.9962 586.404 34.7449 585.312L34.0872 586.065C35.3461 587.164 36.6313 588.253 37.9412 589.331L38.5766 588.558ZM31.0722 582.003C29.8272 580.845 28.6127 579.675 27.4303 578.493L26.7233 579.2C27.9145 580.391 29.1376 581.569 30.3909 582.735L31.0722 582.003ZM23.9587 574.885C22.8324 573.667 21.7408 572.437 20.6856 571.193L19.9231 571.84C20.9878 573.095 22.0889 574.336 23.2245 575.564L23.9587 574.885ZM17.5031 567.257C16.4834 565.93 15.5055 564.589 14.5715 563.234L13.7479 563.801C14.6922 565.172 15.6804 566.527 16.7103 567.866L17.5031 567.257ZM11.8675 559.062C10.994 557.625 10.1699 556.171 9.39733 554.7L8.51202 555.165C9.29456 556.655 10.129 558.127 11.013 559.581L11.8675 559.062ZM7.23689 550.236C6.56218 548.713 5.94261 547.172 5.38054 545.613L4.43978 545.952C5.01009 547.534 5.63853 549.097 6.3226 550.641L7.23689 550.236ZM3.86558 540.865C3.42229 539.272 3.03853 537.659 2.71665 536.027L1.73555 536.22C2.06243 537.878 2.45212 539.515 2.90217 541.133L3.86558 540.865ZM1.94731 531.14C1.75254 529.492 1.62021 527.824 1.55261 526.135L0.553411 526.175C0.622043 527.89 0.756416 529.584 0.954219 531.258L1.94731 531.14ZM1.53912 521.21C1.59469 519.581 1.70977 517.933 1.88633 516.266L0.891895 516.16C0.712857 517.851 0.596094 519.523 0.539702 521.176L1.53912 521.21ZM2.60245 511.206C2.87822 509.645 3.20708 508.068 3.59056 506.474L2.6183 506.24C2.23015 507.854 1.89709 509.451 1.61771 511.032L2.60245 511.206ZM4.89694 501.673C5.38733 500.055 5.93314 498.421 6.53588 496.769L5.59647 496.426C4.98755 498.095 4.43585 499.747 3.93996 501.382L4.89694 501.673ZM8.2928 492.291C8.9178 490.8 9.58849 489.296 10.3059 487.778L9.40176 487.351C8.67822 488.882 8.0015 490.4 7.37063 491.904L8.2928 492.291ZM12.5992 483.182C13.0051 482.409 13.4229 481.633 13.8527 480.852L12.9769 480.37C12.5438 481.156 12.1229 481.938 11.7139 482.717L12.5992 483.182ZM13.8527 480.852C14.2685 480.098 14.6831 479.347 15.0966 478.6L14.2216 478.116C13.8078 478.863 13.3929 479.615 12.9769 480.37L13.8527 480.852ZM17.564 474.162C18.382 472.697 19.1955 471.247 20.0045 469.811L19.1333 469.32C18.3237 470.757 17.5095 472.208 16.6909 473.674L17.564 474.162ZM22.4181 465.547C23.2687 464.051 24.1142 462.571 24.9546 461.107L24.0873 460.609C23.2462 462.074 22.4001 463.555 21.5488 465.052L22.4181 465.547ZM27.4671 456.751C28.2994 455.315 29.1267 453.894 29.9489 452.489L29.0858 451.984C28.2629 453.39 27.435 454.812 26.6019 456.249L27.4671 456.751ZM32.5043 448.144C33.3705 446.679 34.2309 445.231 35.0854 443.8L34.2269 443.287C33.3715 444.719 32.5104 446.169 31.6435 447.635L32.5043 448.144ZM37.6317 439.558C38.5048 438.111 39.3718 436.681 40.2325 435.27L39.3787 434.749C38.5172 436.162 37.6494 437.593 36.7754 439.041L37.6317 439.558ZM42.8767 430.957C43.7514 429.538 44.6195 428.138 45.4809 426.756L44.6322 426.227C43.7699 427.61 42.901 429.012 42.0254 430.432L42.8767 430.957ZM48.1542 422.49C49.0613 421.051 49.9608 419.632 50.8527 418.234L50.0095 417.696C49.1167 419.096 48.2162 420.516 47.3082 421.957L48.1542 422.49ZM53.5055 414.097C54.438 412.651 55.3619 411.228 56.2771 409.826L55.4397 409.279C54.5235 410.682 53.5987 412.108 52.6652 413.555L53.5055 414.097ZM59.0174 405.653C59.9451 404.249 60.8636 402.868 61.7729 401.508L60.9418 400.952C60.0314 402.313 59.1118 403.696 58.1831 405.102L59.0174 405.653ZM64.5977 397.312C65.5291 395.937 66.4505 394.585 67.3618 393.256L66.5371 392.691C65.6248 394.021 64.7023 395.374 63.7697 396.751L64.5977 397.312ZM70.2614 389.055C71.2175 387.679 72.162 386.329 73.0948 385.003L72.277 384.427C71.343 385.755 70.3974 387.107 69.4402 388.485L70.2614 389.055ZM76.0203 380.871C76.9976 379.5 77.9614 378.157 78.9117 376.84L78.1008 376.255C77.1493 377.573 76.1844 378.918 75.2059 380.291L76.0203 380.871ZM81.8797 372.753C82.873 371.394 83.8506 370.064 84.8126 368.764L84.0086 368.169C83.0455 369.471 82.0668 370.802 81.0723 372.163L81.8797 372.753ZM87.8354 364.7C88.8434 363.353 89.8329 362.037 90.8039 360.753L90.0061 360.15C89.0342 361.436 88.0437 362.752 87.0347 364.101L87.8354 364.7ZM93.8679 356.719C94.9044 355.36 95.918 354.037 96.9087 352.748L96.1158 352.139C95.1245 353.429 94.1102 354.753 93.0729 356.112L93.8679 356.719ZM99.9353 348.82C100.996 347.447 102.027 346.113 103.029 344.816L102.238 344.204C101.236 345.501 100.204 346.835 99.1438 348.209L99.9353 348.82ZM106.093 340.845C107.14 339.484 108.151 338.164 109.127 336.881L108.331 336.275C107.357 337.557 106.347 338.875 105.3 340.235L106.093 340.845ZM112.128 332.894C113.16 331.506 114.146 330.16 115.084 328.85L114.271 328.268C113.337 329.572 112.355 330.913 111.326 332.297L112.128 332.894ZM117.958 324.725C118.932 323.281 119.843 321.876 120.69 320.5L119.838 319.976C119 321.338 118.097 322.732 117.129 324.166L117.958 324.725ZM123.214 316.121C124.035 314.586 124.769 313.075 125.418 311.572L124.499 311.176C123.863 312.65 123.141 314.137 122.332 315.65L123.214 316.121ZM127.177 306.835C127.68 305.212 128.082 303.58 128.382 301.92L127.398 301.742C127.105 303.361 126.713 304.954 126.222 306.539L127.177 306.835ZM128.973 296.9C129.066 295.262 129.069 293.583 128.981 291.847L127.982 291.898C128.068 293.6 128.066 295.243 127.975 296.843L128.973 296.9ZM128.497 286.815C128.275 285.215 127.987 283.561 127.632 281.842L126.652 282.045C127.004 283.744 127.288 285.376 127.506 286.952L128.497 286.815ZM126.487 276.944C126.085 275.39 125.635 273.782 125.139 272.116L124.181 272.402C124.674 274.058 125.12 275.653 125.519 277.194L126.487 276.944ZM123.642 267.34C123.379 266.539 123.107 265.723 122.825 264.895L121.878 265.217C122.159 266.042 122.43 266.854 122.692 267.652L123.642 267.34ZM122.825 264.895C122.557 264.108 122.29 263.329 122.023 262.556L121.078 262.882C121.344 263.654 121.611 264.432 121.878 265.217L122.825 264.895ZM120.411 257.958C119.859 256.404 119.309 254.877 118.762 253.375L117.822 253.718C118.368 255.217 118.918 256.742 119.469 258.293L120.411 257.958ZM117.069 248.779C116.492 247.228 115.919 245.702 115.352 244.201L114.417 244.555C114.983 246.055 115.555 247.578 116.132 249.128L117.069 248.779ZM113.618 239.636C113.03 238.093 112.449 236.574 111.877 235.078L110.942 235.435C111.515 236.932 112.096 238.45 112.684 239.993L113.618 239.636ZM110.138 230.521C109.553 228.979 108.978 227.459 108.417 225.958L107.481 226.308C108.043 227.812 108.617 229.333 109.203 230.876L110.138 230.521ZM106.731 221.385C106.169 219.839 105.625 218.31 105.098 216.795L104.153 217.123C104.682 218.644 105.228 220.177 105.791 221.727L106.731 221.385ZM103.54 212.181C103.032 210.624 102.545 209.078 102.082 207.538L101.125 207.826C101.59 209.374 102.079 210.928 102.59 212.492L103.54 212.181ZM100.749 202.862C100.326 201.289 99.9308 199.719 99.5655 198.147L98.5914 198.373C98.9595 199.958 99.3575 201.539 99.7831 203.121L100.749 202.862ZM98.5564 193.394C98.252 191.806 97.98 190.211 97.7427 188.604L96.7534 188.75C96.9929 190.371 97.2673 191.981 97.5743 193.582L98.5564 193.394ZM97.1409 183.784C96.9785 182.188 96.8513 180.576 96.7614 178.945L95.7629 179C95.8536 180.647 95.9821 182.274 96.146 183.885L97.1409 183.784ZM96.607 174.094C96.5931 172.499 96.615 170.882 96.6747 169.24L95.6753 169.203C95.6151 170.861 95.593 172.493 95.6071 174.103L96.607 174.094ZM96.9558 164.39C97.0816 162.805 97.2419 161.193 97.4384 159.553L96.4455 159.434C96.2475 161.087 96.0858 162.712 95.959 164.311L96.9558 164.39ZM98.1081 154.732C98.3556 153.161 98.6353 151.563 98.9484 149.935L97.9665 149.746C97.6512 151.385 97.3696 152.994 97.1203 154.576L98.1081 154.732ZM99.9383 145.189C100.285 143.644 100.661 142.071 101.067 140.47L100.097 140.225C99.6892 141.834 99.3113 143.416 98.9626 144.97L99.9383 145.189ZM102.321 135.772C102.752 134.235 103.209 132.673 103.693 131.083L102.737 130.792C102.25 132.389 101.791 133.958 101.358 135.502L102.321 135.772ZM105.164 126.43C105.656 124.926 106.171 123.397 106.711 121.843L105.766 121.515C105.224 123.075 104.707 124.609 104.213 126.12L105.164 126.43ZM108.35 117.247C108.9 115.742 109.472 114.214 110.067 112.661L109.133 112.304C108.537 113.861 107.963 115.393 107.411 116.903L108.35 117.247ZM111.826 108.157C112.421 106.664 113.035 105.15 113.669 103.612L112.745 103.231C112.109 104.772 111.493 106.29 110.897 107.787L111.826 108.157ZM115.545 99.1367C115.867 98.3802 116.194 97.6183 116.526 96.851L115.608 96.4545C115.275 97.2234 114.948 97.9869 114.625 98.7451L115.545 99.1367ZM116.526 96.851C116.858 96.0805 117.196 95.3162 117.538 94.5579L116.627 94.1466C116.282 94.9097 115.943 95.6791 115.608 96.4545L116.526 96.851ZM119.646 90.0809C120.383 88.5794 121.139 87.103 121.912 85.6511L121.029 85.1812C120.251 86.6427 119.49 88.1289 118.749 89.6403L119.646 90.0809ZM124.305 81.3303C125.139 79.8813 125.99 78.4581 126.859 77.0603L126.009 76.5327C125.135 77.9399 124.278 79.3726 123.438 80.8314L124.305 81.3303ZM129.545 72.8927C130.469 71.5121 131.408 70.1576 132.363 68.8289L131.551 68.2454C130.59 69.5832 129.644 70.9468 128.714 72.3368L129.545 72.8927ZM135.334 64.8372C136.35 63.5197 137.38 62.2292 138.424 60.9649L137.653 60.3281C136.602 61.6009 135.565 62.9002 134.542 64.2266L135.334 64.8372ZM141.641 57.199C142.746 55.9479 143.865 54.7244 144.994 53.5277L144.267 52.8412C143.13 54.0458 142.004 55.2775 140.892 56.5369L141.641 57.199ZM148.455 49.9804C149.635 48.8098 150.826 47.6667 152.026 46.5507L151.345 45.8184C150.137 46.9417 148.939 48.0922 147.751 49.2705L148.455 49.9804ZM155.721 43.2219C156.977 42.1266 158.24 41.0594 159.511 40.0195L158.877 39.2457C157.599 40.2921 156.327 41.3661 155.064 42.4683L155.721 43.2219ZM163.388 36.9431C164.712 35.9256 166.041 34.9366 167.373 33.9751L166.788 33.1642C165.447 34.1315 164.111 35.1266 162.779 36.1502L163.388 36.9431ZM171.445 31.1268C172.826 30.1907 174.209 29.2834 175.592 28.4038L175.055 27.5601C173.664 28.4447 172.274 29.3574 170.884 30.299L171.445 31.1268ZM179.807 25.8051C181.243 24.9473 182.677 24.1187 184.105 23.3185L183.617 22.446C182.18 23.2507 180.739 24.0839 179.294 24.9465L179.807 25.8051ZM188.477 20.9474C189.963 20.1677 191.44 19.4181 192.907 18.6975L192.466 17.8C190.991 18.5244 189.506 19.2781 188.013 20.0619L188.477 20.9474ZM197.39 16.5674C198.917 15.866 200.43 15.1958 201.924 14.5556L201.53 13.6364C200.028 14.2799 198.508 14.9535 196.973 15.6586L197.39 16.5674ZM206.506 12.6607C208.076 12.0348 209.621 11.4422 211.137 10.8814L210.79 9.94357C209.266 10.5072 207.714 11.1027 206.136 11.7318L206.506 12.6607ZM215.814 9.2172C217.431 8.66433 219.008 8.14877 220.538 7.66826L220.238 6.7142C218.7 7.19714 217.116 7.7153 215.49 8.27095L215.814 9.2172ZM225.306 6.23693C226.981 5.75717 228.584 5.32255 230.105 4.92939L229.855 3.9612C228.325 4.35646 226.714 4.79335 225.03 5.27558L225.306 6.23693ZM234.898 3.75911C236.703 3.34465 238.34 2.99913 239.785 2.71324L239.591 1.73226C238.136 2.02002 236.49 2.36765 234.675 2.78447L234.898 3.75911ZM244.628 1.8444C245.419 1.71894 246.028 1.63184 246.438 1.5762C246.643 1.54838 246.799 1.52843 246.903 1.51547C246.954 1.509 246.993 1.50427 247.019 1.50119C247.032 1.49965 247.042 1.49852 247.048 1.49779C247.051 1.49742 247.053 1.49715 247.055 1.49698C247.056 1.4969 247.056 1.49684 247.056 1.4968C247.057 1.49678 247.057 1.49677 247.057 1.49676C247.057 1.49676 247.057 1.49676 247.057 1.49676C247.057 1.49676 247.057 1.49676 247.057 1.49676C247.057 1.49676 247.057 1.49676 247 1C246.943 0.503236 246.943 0.503239 246.943 0.503242C246.943 0.503243 246.943 0.503246 246.943 0.503249C246.943 0.503255 246.943 0.503263 246.943 0.503272C246.943 0.50329 246.943 0.503314 246.942 0.503344C246.942 0.503405 246.941 0.503489 246.94 0.503598C246.938 0.503816 246.935 0.504133 246.932 0.504549C246.925 0.50538 246.914 0.506611 246.901 0.508254C246.873 0.511539 246.832 0.516474 246.779 0.523166C246.671 0.53655 246.512 0.556962 246.304 0.585269C245.886 0.64188 245.27 0.730068 244.471 0.856747L244.628 1.8444Z" fill="#656161"/>
</g>
</svg>
